{
    "frames": [
        {
            "media_type": "video",
            "stream_index": 0,
            "key_frame": 1,
            "pts": 0,
            "pts_time": "0.000000",
            "pkt_dts": 0,
            "pkt_dts_time": "0.000000",
            "best_effort_timestamp": 0,
            "best_effort_timestamp_time": "0.000000",
            "duration": 16384,
            "duration_time": "1.000000",
            "pkt_pos": "48",
            "pkt_size": "414566",
            "width": 1024,
            "height": 1024,
            "crop_top": 0,
            "crop_bottom": 0,
            "crop_left": 0,
            "crop_right": 0,
            "pix_fmt": "yuv420p",
            "pict_type": "I",
            "interlaced_frame": 0,
            "top_field_first": 0,
            "repeat_pict": 0,
            "color_range": "tv",
            "color_space": "bt470bg",
            "chroma_location": "left",
            "side_data_list": [
                {
                    "side_data_type": "H.26[45] User Data Unregistered SEI message"
                }
            ]
        },
        {
            "media_type": "video",
            "stream_index": 0,
            "key_frame": 0,
            "pts": 16384,
            "pts_time": "1.000000",
            "pkt_dts": 16384,
            "pkt_dts_time": "1.000000",
            "best_effort_timestamp": 16384,
            "best_effort_timestamp_time": "1.000000",
            "duration": 16384,
            "duration_time": "1.000000",
            "pkt_pos": "461392",
            "pkt_size": "562",
            "width": 1024,
            "height": 1024,
            "crop_top": 0,
            "crop_bottom": 0,
            "crop_left": 0,
            "crop_right": 0,
            "pix_fmt": "yuv420p",
            "pict_type": "B",
            "interlaced_frame": 0,
            "top_field_first": 0,
            "repeat_pict": 0,
            "color_range": "tv",
            "color_space": "bt470bg",
            "chroma_location": "left"
        },
        {
            "media_type": "video",
            "stream_index": 0,
            "key_frame": 0,
            "pts": 32768,
            "pts_time": "2.000000",
            "pkt_dts": 32768,
            "pkt_dts_time": "2.000000",
            "best_effort_timestamp": 32768,
            "best_effort_timestamp_time": "2.000000",
            "duration": 16384,
            "duration_time": "1.000000",
            "pkt_pos": "448422",
            "pkt_size": "1670",
            "width": 1024,
            "height": 1024,
            "crop_top": 0,
            "crop_bottom": 0,
            "crop_left": 0,
            "crop_right": 0,
            "pix_fmt": "yuv420p",
            "pict_type": "B",
            "interlaced_frame": 0,
            "top_field_first": 0,
            "repeat_pict": 0,
            "color_range": "tv",
            "color_space": "bt470bg",
            "chroma_location": "left"
        },
        {
            "media_type": "video",
            "stream_index": 0,
            "key_frame": 0,
            "pts": 49152,
            "pts_time": "3.000000",
            "pkt_dts": 49152,
            "pkt_dts_time": "3.000000",
            "best_effort_timestamp": 49152,
            "best_effort_timestamp_time": "3.000000",
            "duration": 16384,
            "duration_time": "1.000000",
            "pkt_pos": "473276",
            "pkt_size": "628",
            "width": 1024,
            "height": 1024,
            "crop_top": 0,
            "crop_bottom": 0,
            "crop_left": 0,
            "crop_right": 0,
            "pix_fmt": "yuv420p",
            "pict_type": "B",
            "interlaced_frame": 0,
            "top_field_first": 0,
            "repeat_pict": 0,
            "color_range": "tv",
            "color_space": "bt470bg",
            "chroma_location": "left"
        },
        {
            "media_type": "video",
            "stream_index": 0,
            "key_frame": 0,
            "pts": 65536,
            "pts_time": "4.000000",
            "pkt_dts": 65536,
            "pkt_dts_time": "4.000000",
            "best_effort_timestamp": 65536,
            "best_effort_timestamp_time": "4.000000",
            "duration": 16384,
            "duration_time": "1.000000",
            "pkt_pos": "414614",
            "pkt_size": "33789",
            "width": 1024,
            "height": 1024,
            "crop_top": 0,
            "crop_bottom": 0,
            "crop_left": 0,
            "crop_right": 0,
            "pix_fmt": "yuv420p",
            "pict_type": "P",
            "interlaced_frame": 0,
            "top_field_first": 0,
            "repeat_pict": 0,
            "color_range": "tv",
            "color_space": "bt470bg",
            "chroma_location": "left"
        },
        {
            "media_type": "video",
            "stream_index": 0,
            "key_frame": 0,
            "pts": 81920,
            "pts_time": "5.000000",
            "pkt_dts": 81920,
            "pkt_dts_time": "5.000000",
            "best_effort_timestamp": 81920,
            "best_effort_timestamp_time": "5.000000",
            "duration": 16384,
            "duration_time": "1.000000",
            "pkt_pos": "524629",
            "pkt_size": "327",
            "width": 1024,
            "height": 1024,
            "crop_top": 0,
            "crop_bottom": 0,
            "crop_left": 0,
            "crop_right": 0,
            "pix_fmt": "yuv420p",
            "pict_type": "B",
            "interlaced_frame": 0,
            "top_field_first": 0,
            "repeat_pict": 0,
            "color_range": "tv",
            "color_space": "bt470bg",
            "chroma_location": "left"
        },
        {
            "media_type": "video",
            "stream_index": 0,
            "key_frame": 0,
            "pts": 98304,
            "pts_time": "6.000000",
            "pkt_dts": 98304,
            "pkt_dts_time": "6.000000",
            "best_effort_timestamp": 98304,
            "best_effort_timestamp_time": "6.000000",
            "duration": 16384,
            "duration_time": "1.000000",
            "pkt_pos": "510735",
            "pkt_size": "967",
            "width": 1024,
            "height": 1024,
            "crop_top": 0,
            "crop_bottom": 0,
            "crop_left": 0,
            "crop_right": 0,
            "pix_fmt": "yuv420p",
            "pict_type": "B",
            "interlaced_frame": 0,
            "top_field_first": 0,
            "repeat_pict": 0,
            "color_range": "tv",
            "color_space": "bt470bg",
            "chroma_location": "left"
        },
        {
            "media_type": "video",
            "stream_index": 0,
            "key_frame": 0,
            "pts": 114688,
            "pts_time": "7.000000",
            "pkt_dts": 114688,
            "pkt_dts_time": "7.000000",
            "best_effort_timestamp": 114688,
            "best_effort_timestamp_time": "7.000000",
            "duration": 16384,
            "duration_time": "1.000000",
            "pkt_pos": "528753",
            "pkt_size": "456",
            "width": 1024,
            "height": 1024,
            "crop_top": 0,
            "crop_bottom": 0,
            "crop_left": 0,
            "crop_right": 0,
            "pix_fmt": "yuv420p",
            "pict_type": "B",
            "interlaced_frame": 0,
            "top_field_first": 0,
            "repeat_pict": 0,
            "color_range": "tv",
            "color_space": "bt470bg",
            "chroma_location": "left"
        },
        {
            "media_type": "video",
            "stream_index": 0,
            "key_frame": 0,
            "pts": 131072,
            "pts_time": "8.000000",
            "pkt_dts": 131072,
            "pkt_dts_time": "8.000000",
            "best_effort_timestamp": 131072,
            "best_effort_timestamp_time": "8.000000",
            "duration": 16384,
            "duration_time": "1.000000",
            "pkt_pos": "485143",
            "pkt_size": "13391",
            "width": 1024,
            "height": 1024,
            "crop_top": 0,
            "crop_bottom": 0,
            "crop_left": 0,
            "crop_right": 0,
            "pix_fmt": "yuv420p",
            "pict_type": "P",
            "interlaced_frame": 0,
            "top_field_first": 0,
            "repeat_pict": 0,
            "color_range": "tv",
            "color_space": "bt470bg",
            "chroma_location": "left"
        },
        {
            "media_type": "video",
            "stream_index": 0,
            "key_frame": 0,
            "pts": 147456,
            "pts_time": "9.000000",
            "pkt_dts": 147456,
            "pkt_dts_time": "9.000000",
            "best_effort_timestamp": 147456,
            "best_effort_timestamp_time": "9.000000",
            "duration": 16384,
            "duration_time": "1.000000",
            "pkt_pos": "573279",
            "pkt_size": "293",
            "width": 1024,
            "height": 1024,
            "crop_top": 0,
            "crop_bottom": 0,
            "crop_left": 0,
            "crop_right": 0,
            "pix_fmt": "yuv420p",
            "pict_type": "B",
            "interlaced_frame": 0,
            "top_field_first": 0,
            "repeat_pict": 0,
            "color_range": "tv",
            "color_space": "bt470bg",
            "chroma_location": "left"
        },
        {
            "media_type": "video",
            "stream_index": 0,
            "key_frame": 0,
            "pts": 163840,
            "pts_time": "10.000000",
            "pkt_dts": 163840,
            "pkt_dts_time": "10.000000",
            "best_effort_timestamp": 163840,
            "best_effort_timestamp_time": "10.000000",
            "duration": 16384,
            "duration_time": "1.000000",
            "pkt_pos": "562402",
            "pkt_size": "678",
            "width": 1024,
            "height": 1024,
            "crop_top": 0,
            "crop_bottom": 0,
            "crop_left": 0,
            "crop_right": 0,
            "pix_fmt": "yuv420p",
            "pict_type": "B",
            "interlaced_frame": 0,
            "top_field_first": 0,
            "repeat_pict": 0,
            "color_range": "tv",
            "color_space": "bt470bg",
            "chroma_location": "left"
        },
        {
            "media_type": "video",
            "stream_index": 0,
            "key_frame": 0,
            "pts": 180224,
            "pts_time": "11.000000",
            "pkt_dts": 180224,
            "pkt_dts_time": "11.000000",
            "best_effort_timestamp": 180224,
            "best_effort_timestamp_time": "11.000000",
            "duration": 16384,
            "duration_time": "1.000000",
            "pkt_pos": "586166",
            "pkt_size": "375",
            "width": 1024,
            "height": 1024,
            "crop_top": 0,
            "crop_bottom": 0,
            "crop_left": 0,
            "crop_right": 0,
            "pix_fmt": "yuv420p",
            "pict_type": "B",
            "interlaced_frame": 0,
            "top_field_first": 0,
            "repeat_pict": 0,
            "color_range": "tv",
            "color_space": "bt470bg",
            "chroma_location": "left"
        },
        {
            "media_type": "video",
            "stream_index": 0,
            "key_frame": 0,
            "pts": 196608,
            "pts_time": "12.000000",
            "pkt_dts": 196608,
            "pkt_dts_time": "12.000000",
            "best_effort_timestamp": 196608,
            "best_effort_timestamp_time": "12.000000",
            "duration": 16384,
            "duration_time": "1.000000",
            "pkt_pos": "541233",
            "pkt_size": "9524",
            "width": 1024,
            "height": 1024,
            "crop_top": 0,
            "crop_bottom": 0,
            "crop_left": 0,
            "crop_right": 0,
            "pix_fmt": "yuv420p",
            "pict_type": "P",
            "interlaced_frame": 0,
            "top_field_first": 0,
            "repeat_pict": 0,
            "color_range": "tv",
            "color_space": "bt470bg",
            "chroma_location": "left"
        },
        {
            "media_type": "video",
            "stream_index": 0,
            "key_frame": 0,
            "pts": 212992,
            "pts_time": "13.000000",
            "pkt_dts": 212992,
            "pkt_dts_time": "13.000000",
            "best_effort_timestamp": 212992,
            "best_effort_timestamp_time": "13.000000",
            "duration": 16384,
            "duration_time": "1.000000",
            "pkt_pos": "627245",
            "pkt_size": "263",
            "width": 1024,
            "height": 1024,
            "crop_top": 0,
            "crop_bottom": 0,
            "crop_left": 0,
            "crop_right": 0,
            "pix_fmt": "yuv420p",
            "pict_type": "B",
            "interlaced_frame": 0,
            "top_field_first": 0,
            "repeat_pict": 0,
            "color_range": "tv",
            "color_space": "bt470bg",
            "chroma_location": "left"
        },
        {
            "media_type": "video",
            "stream_index": 0,
            "key_frame": 0,
            "pts": 229376,
            "pts_time": "14.000000",
            "pkt_dts": 229376,
            "pkt_dts_time": "14.000000",
            "best_effort_timestamp": 229376,
            "best_effort_timestamp_time": "14.000000",
            "duration": 16384,
            "duration_time": "1.000000",
            "pkt_pos": "615705",
            "pkt_size": "491",
            "width": 1024,
            "height": 1024,
            "crop_top": 0,
            "crop_bottom": 0,
            "crop_left": 0,
            "crop_right": 0,
            "pix_fmt": "yuv420p",
            "pict_type": "B",
            "interlaced_frame": 0,
            "top_field_first": 0,
            "repeat_pict": 0,
            "color_range": "tv",
            "color_space": "bt470bg",
            "chroma_location": "left"
        },
        {
            "media_type": "video",
            "stream_index": 0,
            "key_frame": 0,
            "pts": 245760,
            "pts_time": "15.000000",
            "pkt_dts": 245760,
            "pkt_dts_time": "15.000000",
            "best_effort_timestamp": 245760,
            "best_effort_timestamp_time": "15.000000",
            "duration": 16384,
            "duration_time": "1.000000",
            "pkt_pos": "632756",
            "pkt_size": "328",
            "width": 1024,
            "height": 1024,
            "crop_top": 0,
            "crop_bottom": 0,
            "crop_left": 0,
            "crop_right": 0,
            "pix_fmt": "yuv420p",
            "pict_type": "B",
            "interlaced_frame": 0,
            "top_field_first": 0,
            "repeat_pict": 0,
            "color_range": "tv",
            "color_space": "bt470bg",
            "chroma_location": "left"
        },
        {
            "media_type": "video",
            "stream_index": 0,
            "key_frame": 0,
            "pts": 262144,
            "pts_time": "16.000000",
            "pkt_dts": 262144,
            "pkt_dts_time": "16.000000",
            "best_effort_timestamp": 262144,
            "best_effort_timestamp_time": "16.000000",
            "duration": 16384,
            "duration_time": "1.000000",
            "pkt_pos": "595852",
            "pkt_size": "7570",
            "width": 1024,
            "height": 1024,
            "crop_top": 0,
            "crop_bottom": 0,
            "crop_left": 0,
            "crop_right": 0,
            "pix_fmt": "yuv420p",
            "pict_type": "P",
            "interlaced_frame": 0,
            "top_field_first": 0,
            "repeat_pict": 0,
            "color_range": "tv",
            "color_space": "bt470bg",
            "chroma_location": "left"
        },
        {
            "media_type": "video",
            "stream_index": 0,
            "key_frame": 0,
            "pts": 278528,
            "pts_time": "17.000000",
            "pkt_dts": 278528,
            "pkt_dts_time": "17.000000",
            "best_effort_timestamp": 278528,
            "best_effort_timestamp_time": "17.000000",
            "duration": 16384,
            "duration_time": "1.000000",
            "pkt_pos": "675652",
            "pkt_size": "261",
            "width": 1024,
            "height": 1024,
            "crop_top": 0,
            "crop_bottom": 0,
            "crop_left": 0,
            "crop_right": 0,
            "pix_fmt": "yuv420p",
            "pict_type": "B",
            "interlaced_frame": 0,
            "top_field_first": 0,
            "repeat_pict": 0,
            "color_range": "tv",
            "color_space": "bt470bg",
            "chroma_location": "left"
        },
        {
            "media_type": "video",
            "stream_index": 0,
            "key_frame": 0,
            "pts": 294912,
            "pts_time": "18.000000",
            "pkt_dts": 294912,
            "pkt_dts_time": "18.000000",
            "best_effort_timestamp": 294912,
            "best_effort_timestamp_time": "18.000000",
            "duration": 16384,
            "duration_time": "1.000000",
            "pkt_pos": "663707",
            "pkt_size": "415",
            "width": 1024,
            "height": 1024,
            "crop_top": 0,
            "crop_bottom": 0,
            "crop_left": 0,
            "crop_right": 0,
            "pix_fmt": "yuv420p",
            "pict_type": "B",
            "interlaced_frame": 0,
            "top_field_first": 0,
            "repeat_pict": 0,
            "color_range": "tv",
            "color_space": "bt470bg",
            "chroma_location": "left"
        },
        {
            "media_type": "video",
            "stream_index": 0,
            "key_frame": 0,
            "pts": 311296,
            "pts_time": "19.000000",
            "pkt_dts": 311296,
            "pkt_dts_time": "19.000000",
            "best_effort_timestamp": 311296,
            "best_effort_timestamp_time": "19.000000",
            "duration": 16384,
            "duration_time": "1.000000",
            "pkt_pos": "685377",
            "pkt_size": "295",
            "width": 1024,
            "height": 1024,
            "crop_top": 0,
            "crop_bottom": 0,
            "crop_left": 0,
            "crop_right": 0,
            "pix_fmt": "yuv420p",
            "pict_type": "B",
            "interlaced_frame": 0,
            "top_field_first": 0,
            "repeat_pict": 0,
            "color_range": "tv",
            "color_space": "bt470bg",
            "chroma_location": "left"
        },
        {
            "media_type": "video",
            "stream_index": 0,
            "key_frame": 0,
            "pts": 327680,
            "pts_time": "20.000000",
            "pkt_dts": 327680,
            "pkt_dts_time": "20.000000",
            "best_effort_timestamp": 327680,
            "best_effort_timestamp_time": "20.000000",
            "duration": 16384,
            "duration_time": "1.000000",
            "pkt_pos": "644756",
            "pkt_size": "6936",
            "width": 1024,
            "height": 1024,
            "crop_top": 0,
            "crop_bottom": 0,
            "crop_left": 0,
            "crop_right": 0,
            "pix_fmt": "yuv420p",
            "pict_type": "P",
            "interlaced_frame": 0,
            "top_field_first": 0,
            "repeat_pict": 0,
            "color_range": "tv",
            "color_space": "bt470bg",
            "chroma_location": "left"
        },
        {
            "media_type": "video",
            "stream_index": 0,
            "key_frame": 0,
            "pts": 344064,
            "pts_time": "21.000000",
            "pkt_dts": 344064,
            "pkt_dts_time": "21.000000",
            "best_effort_timestamp": 344064,
            "best_effort_timestamp_time": "21.000000",
            "duration": 16384,
            "duration_time": "1.000000",
            "pkt_pos": "720072",
            "pkt_size": "252",
            "width": 1024,
            "height": 1024,
            "crop_top": 0,
            "crop_bottom": 0,
            "crop_left": 0,
            "crop_right": 0,
            "pix_fmt": "yuv420p",
            "pict_type": "B",
            "interlaced_frame": 0,
            "top_field_first": 0,
            "repeat_pict": 0,
            "color_range": "tv",
            "color_space": "bt470bg",
            "chroma_location": "left"
        },
        {
            "media_type": "video",
            "stream_index": 0,
            "key_frame": 0,
            "pts": 360448,
            "pts_time": "22.000000",
            "pkt_dts": 360448,
            "pkt_dts_time": "22.000000",
            "best_effort_timestamp": 360448,
            "best_effort_timestamp_time": "22.000000",
            "duration": 16384,
            "duration_time": "1.000000",
            "pkt_pos": "715002",
            "pkt_size": "402",
            "width": 1024,
            "height": 1024,
            "crop_top": 0,
            "crop_bottom": 0,
            "crop_left": 0,
            "crop_right": 0,
            "pix_fmt": "yuv420p",
            "pict_type": "B",
            "interlaced_frame": 0,
            "top_field_first": 0,
            "repeat_pict": 0,
            "color_range": "tv",
            "color_space": "bt470bg",
            "chroma_location": "left"
        },
        {
            "media_type": "video",
            "stream_index": 0,
            "key_frame": 0,
            "pts": 376832,
            "pts_time": "23.000000",
            "pkt_dts": 376832,
            "pkt_dts_time": "23.000000",
            "best_effort_timestamp": 376832,
            "best_effort_timestamp_time": "23.000000",
            "duration": 16384,
            "duration_time": "1.000000",
            "pkt_pos": "732628",
            "pkt_size": "297",
            "width": 1024,
            "height": 1024,
            "crop_top": 0,
            "crop_bottom": 0,
            "crop_left": 0,
            "crop_right": 0,
            "pix_fmt": "yuv420p",
            "pict_type": "B",
            "interlaced_frame": 0,
            "top_field_first": 0,
            "repeat_pict": 0,
            "color_range": "tv",
            "color_space": "bt470bg",
            "chroma_location": "left"
        },
        {
            "media_type": "video",
            "stream_index": 0,
            "key_frame": 0,
            "pts": 393216,
            "pts_time": "24.000000",
            "pkt_dts": 393216,
            "pkt_dts_time": "24.000000",
            "best_effort_timestamp": 393216,
            "best_effort_timestamp_time": "24.000000",
            "duration": 16384,
            "duration_time": "1.000000",
            "pkt_pos": "698025",
            "pkt_size": "6369",
            "width": 1024,
            "height": 1024,
            "crop_top": 0,
            "crop_bottom": 0,
            "crop_left": 0,
            "crop_right": 0,
            "pix_fmt": "yuv420p",
            "pict_type": "P",
            "interlaced_frame": 0,
            "top_field_first": 0,
            "repeat_pict": 0,
            "color_range": "tv",
            "color_space": "bt470bg",
            "chroma_location": "left"
        },
        {
            "media_type": "video",
            "stream_index": 0,
            "key_frame": 0,
            "pts": 409600,
            "pts_time": "25.000000",
            "pkt_dts": 409600,
            "pkt_dts_time": "25.000000",
            "best_effort_timestamp": 409600,
            "best_effort_timestamp_time": "25.000000",
            "duration": 16384,
            "duration_time": "1.000000",
            "pkt_pos": "755787",
            "pkt_size": "267",
            "width": 1024,
            "height": 1024,
            "crop_top": 0,
            "crop_bottom": 0,
            "crop_left": 0,
            "crop_right": 0,
            "pix_fmt": "yuv420p",
            "pict_type": "B",
            "interlaced_frame": 0,
            "top_field_first": 0,
            "repeat_pict": 0,
            "color_range": "tv",
            "color_space": "bt470bg",
            "chroma_location": "left"
        },
        {
            "media_type": "video",
            "stream_index": 0,
            "key_frame": 0,
            "pts": 425984,
            "pts_time": "26.000000",
            "pkt_dts": 425984,
            "pkt_dts_time": "26.000000",
            "best_effort_timestamp": 425984,
            "best_effort_timestamp_time": "26.000000",
            "duration": 16384,
            "duration_time": "1.000000",
            "pkt_pos": "755420",
            "pkt_size": "367",
            "width": 1024,
            "height": 1024,
            "crop_top": 0,
            "crop_bottom": 0,
            "crop_left": 0,
            "crop_right": 0,
            "pix_fmt": "yuv420p",
            "pict_type": "B",
            "interlaced_frame": 0,
            "top_field_first": 0,
            "repeat_pict": 0,
            "color_range": "tv",
            "color_space": "bt470bg",
            "chroma_location": "left"
        },
        {
            "media_type": "video",
            "stream_index": 0,
            "key_frame": 0,
            "pts": 442368,
            "pts_time": "27.000000",
            "pkt_dts": 442368,
            "pkt_dts_time": "27.000000",
            "best_effort_timestamp": 442368,
            "best_effort_timestamp_time": "27.000000",
            "duration": 16384,
            "duration_time": "1.000000",
            "pkt_pos": "756054",
            "pkt_size": "279",
            "width": 1024,
            "height": 1024,
            "crop_top": 0,
            "crop_bottom": 0,
            "crop_left": 0,
            "crop_right": 0,
            "pix_fmt": "yuv420p",
            "pict_type": "B",
            "interlaced_frame": 0,
            "top_field_first": 0,
            "repeat_pict": 0,
            "color_range": "tv",
            "color_space": "bt470bg",
            "chroma_location": "left"
        },
        {
            "media_type": "video",
            "stream_index": 0,
            "key_frame": 0,
            "pts": 458752,
            "pts_time": "28.000000",
            "pkt_dts": 458752,
            "pkt_dts_time": "28.000000",
            "best_effort_timestamp": 458752,
            "best_effort_timestamp_time": "28.000000",
            "duration": 16384,
            "duration_time": "1.000000",
            "pkt_pos": "744094",
            "pkt_size": "6144",
            "width": 1024,
            "height": 1024,
            "crop_top": 0,
            "crop_bottom": 0,
            "crop_left": 0,
            "crop_right": 0,
            "pix_fmt": "yuv420p",
            "pict_type": "P",
            "interlaced_frame": 0,
            "top_field_first": 0,
            "repeat_pict": 0,
            "color_range": "tv",
            "color_space": "bt470bg",
            "chroma_location": "left"
        },
        {
            "media_type": "video",
            "stream_index": 0,
            "key_frame": 0,
            "pts": 475136,
            "pts_time": "29.000000",
            "pkt_dts": 475136,
            "pkt_dts_time": "29.000000",
            "best_effort_timestamp": 475136,
            "best_effort_timestamp_time": "29.000000",
            "duration": 16384,
            "duration_time": "1.000000",
            "pkt_pos": "762517",
            "pkt_size": "271",
            "width": 1024,
            "height": 1024,
            "crop_top": 0,
            "crop_bottom": 0,
            "crop_left": 0,
            "crop_right": 0,
            "pix_fmt": "yuv420p",
            "pict_type": "B",
            "interlaced_frame": 0,
            "top_field_first": 0,
            "repeat_pict": 0,
            "color_range": "tv",
            "color_space": "bt470bg",
            "chroma_location": "left"
        },
        {
            "media_type": "video",
            "stream_index": 0,
            "key_frame": 0,
            "pts": 491520,
            "pts_time": "30.000000",
            "pkt_dts": 491520,
            "pkt_dts_time": "30.000000",
            "best_effort_timestamp": 491520,
            "best_effort_timestamp_time": "30.000000",
            "duration": 16384,
            "duration_time": "1.000000",
            "pkt_pos": "762160",
            "pkt_size": "357",
            "width": 1024,
            "height": 1024,
            "crop_top": 0,
            "crop_bottom": 0,
            "crop_left": 0,
            "crop_right": 0,
            "pix_fmt": "yuv420p",
            "pict_type": "B",
            "interlaced_frame": 0,
            "top_field_first": 0,
            "repeat_pict": 0,
            "color_range": "tv",
            "color_space": "bt470bg",
            "chroma_location": "left"
        },
        {
            "media_type": "video",
            "stream_index": 0,
            "key_frame": 0,
            "pts": 507904,
            "pts_time": "31.000000",
            "pkt_dts": 507904,
            "pkt_dts_time": "31.000000",
            "best_effort_timestamp": 507904,
            "best_effort_timestamp_time": "31.000000",
            "duration": 16384,
            "duration_time": "1.000000",
            "pkt_pos": "762788",
            "pkt_size": "280",
            "width": 1024,
            "height": 1024,
            "crop_top": 0,
            "crop_bottom": 0,
            "crop_left": 0,
            "crop_right": 0,
            "pix_fmt": "yuv420p",
            "pict_type": "B",
            "interlaced_frame": 0,
            "top_field_first": 0,
            "repeat_pict": 0,
            "color_range": "tv",
            "color_space": "bt470bg",
            "chroma_location": "left"
        },
        {
            "media_type": "video",
            "stream_index": 0,
            "key_frame": 0,
            "pts": 524288,
            "pts_time": "32.000000",
            "pkt_dts": 524288,
            "pkt_dts_time": "32.000000",
            "best_effort_timestamp": 524288,
            "best_effort_timestamp_time": "32.000000",
            "duration": 16384,
            "duration_time": "1.000000",
            "pkt_pos": "756333",
            "pkt_size": "5827",
            "width": 1024,
            "height": 1024,
            "crop_top": 0,
            "crop_bottom": 0,
            "crop_left": 0,
            "crop_right": 0,
            "pix_fmt": "yuv420p",
            "pict_type": "P",
            "interlaced_frame": 0,
            "top_field_first": 0,
            "repeat_pict": 0,
            "color_range": "tv",
            "color_space": "bt470bg",
            "chroma_location": "left"
        },
        {
            "media_type": "video",
            "stream_index": 0,
            "key_frame": 0,
            "pts": 540672,
            "pts_time": "33.000000",
            "pkt_dts": 540672,
            "pkt_dts_time": "33.000000",
            "best_effort_timestamp": 540672,
            "best_effort_timestamp_time": "33.000000",
            "duration": 16384,
            "duration_time": "1.000000",
            "pkt_pos": "768835",
            "pkt_size": "266",
            "width": 1024,
            "height": 1024,
            "crop_top": 0,
            "crop_bottom": 0,
            "crop_left": 0,
            "crop_right": 0,
            "pix_fmt": "yuv420p",
            "pict_type": "B",
            "interlaced_frame": 0,
            "top_field_first": 0,
            "repeat_pict": 0,
            "color_range": "tv",
            "color_space": "bt470bg",
            "chroma_location": "left"
        },
        {
            "media_type": "video",
            "stream_index": 0,
            "key_frame": 0,
            "pts": 557056,
            "pts_time": "34.000000",
            "pkt_dts": 557056,
            "pkt_dts_time": "34.000000",
            "best_effort_timestamp": 557056,
            "best_effort_timestamp_time": "34.000000",
            "duration": 16384,
            "duration_time": "1.000000",
            "pkt_pos": "768515",
            "pkt_size": "320",
            "width": 1024,
            "height": 1024,
            "crop_top": 0,
            "crop_bottom": 0,
            "crop_left": 0,
            "crop_right": 0,
            "pix_fmt": "yuv420p",
            "pict_type": "B",
            "interlaced_frame": 0,
            "top_field_first": 0,
            "repeat_pict": 0,
            "color_range": "tv",
            "color_space": "bt470bg",
            "chroma_location": "left"
        },
        {
            "media_type": "video",
            "stream_index": 0,
            "key_frame": 0,
            "pts": 573440,
            "pts_time": "35.000000",
            "pkt_dts": 573440,
            "pkt_dts_time": "35.000000",
            "best_effort_timestamp": 573440,
            "best_effort_timestamp_time": "35.000000",
            "duration": 16384,
            "duration_time": "1.000000",
            "pkt_pos": "769101",
            "pkt_size": "264",
            "width": 1024,
            "height": 1024,
            "crop_top": 0,
            "crop_bottom": 0,
            "crop_left": 0,
            "crop_right": 0,
            "pix_fmt": "yuv420p",
            "pict_type": "B",
            "interlaced_frame": 0,
            "top_field_first": 0,
            "repeat_pict": 0,
            "color_range": "tv",
            "color_space": "bt470bg",
            "chroma_location": "left"
        },
        {
            "media_type": "video",
            "stream_index": 0,
            "key_frame": 0,
            "pts": 589824,
            "pts_time": "36.000000",
            "pkt_dts": 589824,
            "pkt_dts_time": "36.000000",
            "best_effort_timestamp": 589824,
            "best_effort_timestamp_time": "36.000000",
            "duration": 16384,
            "duration_time": "1.000000",
            "pkt_pos": "763068",
            "pkt_size": "5447",
            "width": 1024,
            "height": 1024,
            "crop_top": 0,
            "crop_bottom": 0,
            "crop_left": 0,
            "crop_right": 0,
            "pix_fmt": "yuv420p",
            "pict_type": "P",
            "interlaced_frame": 0,
            "top_field_first": 0,
            "repeat_pict": 0,
            "color_range": "tv",
            "color_space": "bt470bg",
            "chroma_location": "left"
        },
        {
            "media_type": "video",
            "stream_index": 0,
            "key_frame": 0,
            "pts": 606208,
            "pts_time": "37.000000",
            "pkt_dts": 606208,
            "pkt_dts_time": "37.000000",
            "best_effort_timestamp": 606208,
            "best_effort_timestamp_time": "37.000000",
            "duration": 16384,
            "duration_time": "1.000000",
            "pkt_pos": "775269",
            "pkt_size": "262",
            "width": 1024,
            "height": 1024,
            "crop_top": 0,
            "crop_bottom": 0,
            "crop_left": 0,
            "crop_right": 0,
            "pix_fmt": "yuv420p",
            "pict_type": "B",
            "interlaced_frame": 0,
            "top_field_first": 0,
            "repeat_pict": 0,
            "color_range": "tv",
            "color_space": "bt470bg",
            "chroma_location": "left"
        },
        {
            "media_type": "video",
            "stream_index": 0,
            "key_frame": 0,
            "pts": 622592,
            "pts_time": "38.000000",
            "pkt_dts": 622592,
            "pkt_dts_time": "38.000000",
            "best_effort_timestamp": 622592,
            "best_effort_timestamp_time": "38.000000",
            "duration": 16384,
            "duration_time": "1.000000",
            "pkt_pos": "774948",
            "pkt_size": "321",
            "width": 1024,
            "height": 1024,
            "crop_top": 0,
            "crop_bottom": 0,
            "crop_left": 0,
            "crop_right": 0,
            "pix_fmt": "yuv420p",
            "pict_type": "B",
            "interlaced_frame": 0,
            "top_field_first": 0,
            "repeat_pict": 0,
            "color_range": "tv",
            "color_space": "bt470bg",
            "chroma_location": "left"
        },
        {
            "media_type": "video",
            "stream_index": 0,
            "key_frame": 0,
            "pts": 638976,
            "pts_time": "39.000000",
            "pkt_dts": 638976,
            "pkt_dts_time": "39.000000",
            "best_effort_timestamp": 638976,
            "best_effort_timestamp_time": "39.000000",
            "duration": 16384,
            "duration_time": "1.000000",
            "pkt_pos": "775531",
            "pkt_size": "275",
            "width": 1024,
            "height": 1024,
            "crop_top": 0,
            "crop_bottom": 0,
            "crop_left": 0,
            "crop_right": 0,
            "pix_fmt": "yuv420p",
            "pict_type": "B",
            "interlaced_frame": 0,
            "top_field_first": 0,
            "repeat_pict": 0,
            "color_range": "tv",
            "color_space": "bt470bg",
            "chroma_location": "left"
        },
        {
            "media_type": "video",
            "stream_index": 0,
            "key_frame": 0,
            "pts": 655360,
            "pts_time": "40.000000",
            "pkt_dts": 655360,
            "pkt_dts_time": "40.000000",
            "best_effort_timestamp": 655360,
            "best_effort_timestamp_time": "40.000000",
            "duration": 16384,
            "duration_time": "1.000000",
            "pkt_pos": "769365",
            "pkt_size": "5583",
            "width": 1024,
            "height": 1024,
            "crop_top": 0,
            "crop_bottom": 0,
            "crop_left": 0,
            "crop_right": 0,
            "pix_fmt": "yuv420p",
            "pict_type": "P",
            "interlaced_frame": 0,
            "top_field_first": 0,
            "repeat_pict": 0,
            "color_range": "tv",
            "color_space": "bt470bg",
            "chroma_location": "left"
        },
        {
            "media_type": "video",
            "stream_index": 0,
            "key_frame": 0,
            "pts": 671744,
            "pts_time": "41.000000",
            "pkt_dts": 671744,
            "pkt_dts_time": "41.000000",
            "best_effort_timestamp": 671744,
            "best_effort_timestamp_time": "41.000000",
            "duration": 16384,
            "duration_time": "1.000000",
            "pkt_pos": "781526",
            "pkt_size": "270",
            "width": 1024,
            "height": 1024,
            "crop_top": 0,
            "crop_bottom": 0,
            "crop_left": 0,
            "crop_right": 0,
            "pix_fmt": "yuv420p",
            "pict_type": "B",
            "interlaced_frame": 0,
            "top_field_first": 0,
            "repeat_pict": 0,
            "color_range": "tv",
            "color_space": "bt470bg",
            "chroma_location": "left"
        },
        {
            "media_type": "video",
            "stream_index": 0,
            "key_frame": 0,
            "pts": 688128,
            "pts_time": "42.000000",
            "pkt_dts": 688128,
            "pkt_dts_time": "42.000000",
            "best_effort_timestamp": 688128,
            "best_effort_timestamp_time": "42.000000",
            "duration": 16384,
            "duration_time": "1.000000",
            "pkt_pos": "781212",
            "pkt_size": "314",
            "width": 1024,
            "height": 1024,
            "crop_top": 0,
            "crop_bottom": 0,
            "crop_left": 0,
            "crop_right": 0,
            "pix_fmt": "yuv420p",
            "pict_type": "B",
            "interlaced_frame": 0,
            "top_field_first": 0,
            "repeat_pict": 0,
            "color_range": "tv",
            "color_space": "bt470bg",
            "chroma_location": "left"
        },
        {
            "media_type": "video",
            "stream_index": 0,
            "key_frame": 0,
            "pts": 704512,
            "pts_time": "43.000000",
            "pkt_dts": 704512,
            "pkt_dts_time": "43.000000",
            "best_effort_timestamp": 704512,
            "best_effort_timestamp_time": "43.000000",
            "duration": 16384,
            "duration_time": "1.000000",
            "pkt_pos": "781796",
            "pkt_size": "267",
            "width": 1024,
            "height": 1024,
            "crop_top": 0,
            "crop_bottom": 0,
            "crop_left": 0,
            "crop_right": 0,
            "pix_fmt": "yuv420p",
            "pict_type": "B",
            "interlaced_frame": 0,
            "top_field_first": 0,
            "repeat_pict": 0,
            "color_range": "tv",
            "color_space": "bt470bg",
            "chroma_location": "left"
        },
        {
            "media_type": "video",
            "stream_index": 0,
            "key_frame": 0,
            "pts": 720896,
            "pts_time": "44.000000",
            "pkt_dts": 720896,
            "pkt_dts_time": "44.000000",
            "best_effort_timestamp": 720896,
            "best_effort_timestamp_time": "44.000000",
            "duration": 16384,
            "duration_time": "1.000000",
            "pkt_pos": "775806",
            "pkt_size": "5406",
            "width": 1024,
            "height": 1024,
            "crop_top": 0,
            "crop_bottom": 0,
            "crop_left": 0,
            "crop_right": 0,
            "pix_fmt": "yuv420p",
            "pict_type": "P",
            "interlaced_frame": 0,
            "top_field_first": 0,
            "repeat_pict": 0,
            "color_range": "tv",
            "color_space": "bt470bg",
            "chroma_location": "left"
        },
        {
            "media_type": "video",
            "stream_index": 0,
            "key_frame": 0,
            "pts": 737280,
            "pts_time": "45.000000",
            "pkt_dts": 737280,
            "pkt_dts_time": "45.000000",
            "best_effort_timestamp": 737280,
            "best_effort_timestamp_time": "45.000000",
            "duration": 16384,
            "duration_time": "1.000000",
            "pkt_pos": "787779",
            "pkt_size": "264",
            "width": 1024,
            "height": 1024,
            "crop_top": 0,
            "crop_bottom": 0,
            "crop_left": 0,
            "crop_right": 0,
            "pix_fmt": "yuv420p",
            "pict_type": "B",
            "interlaced_frame": 0,
            "top_field_first": 0,
            "repeat_pict": 0,
            "color_range": "tv",
            "color_space": "bt470bg",
            "chroma_location": "left"
        },
        {
            "media_type": "video",
            "stream_index": 0,
            "key_frame": 0,
            "pts": 753664,
            "pts_time": "46.000000",
            "pkt_dts": 753664,
            "pkt_dts_time": "46.000000",
            "best_effort_timestamp": 753664,
            "best_effort_timestamp_time": "46.000000",
            "duration": 16384,
            "duration_time": "1.000000",
            "pkt_pos": "787468",
            "pkt_size": "311",
            "width": 1024,
            "height": 1024,
            "crop_top": 0,
            "crop_bottom": 0,
            "crop_left": 0,
            "crop_right": 0,
            "pix_fmt": "yuv420p",
            "pict_type": "B",
            "interlaced_frame": 0,
            "top_field_first": 0,
            "repeat_pict": 0,
            "color_range": "tv",
            "color_space": "bt470bg",
            "chroma_location": "left"
        },
        {
            "media_type": "video",
            "stream_index": 0,
            "key_frame": 0,
            "pts": 770048,
            "pts_time": "47.000000",
            "pkt_dts": 770048,
            "pkt_dts_time": "47.000000",
            "best_effort_timestamp": 770048,
            "best_effort_timestamp_time": "47.000000",
            "duration": 16384,
            "duration_time": "1.000000",
            "pkt_pos": "788043",
            "pkt_size": "270",
            "width": 1024,
            "height": 1024,
            "crop_top": 0,
            "crop_bottom": 0,
            "crop_left": 0,
            "crop_right": 0,
            "pix_fmt": "yuv420p",
            "pict_type": "B",
            "interlaced_frame": 0,
            "top_field_first": 0,
            "repeat_pict": 0,
            "color_range": "tv",
            "color_space": "bt470bg",
            "chroma_location": "left"
        },
        {
            "media_type": "video",
            "stream_index": 0,
            "key_frame": 0,
            "pts": 786432,
            "pts_time": "48.000000",
            "pkt_dts": 786432,
            "pkt_dts_time": "48.000000",
            "best_effort_timestamp": 786432,
            "best_effort_timestamp_time": "48.000000",
            "duration": 16384,
            "duration_time": "1.000000",
            "pkt_pos": "782063",
            "pkt_size": "5405",
            "width": 1024,
            "height": 1024,
            "crop_top": 0,
            "crop_bottom": 0,
            "crop_left": 0,
            "crop_right": 0,
            "pix_fmt": "yuv420p",
            "pict_type": "P",
            "interlaced_frame": 0,
            "top_field_first": 0,
            "repeat_pict": 0,
            "color_range": "tv",
            "color_space": "bt470bg",
            "chroma_location": "left"
        },
        {
            "media_type": "video",
            "stream_index": 0,
            "key_frame": 0,
            "pts": 802816,
            "pts_time": "49.000000",
            "pkt_dts": 802816,
            "pkt_dts_time": "49.000000",
            "best_effort_timestamp": 802816,
            "best_effort_timestamp_time": "49.000000",
            "duration": 16384,
            "duration_time": "1.000000",
            "pkt_pos": "794912",
            "pkt_size": "285",
            "width": 1024,
            "height": 1024,
            "crop_top": 0,
            "crop_bottom": 0,
            "crop_left": 0,
            "crop_right": 0,
            "pix_fmt": "yuv420p",
            "pict_type": "B",
            "interlaced_frame": 0,
            "top_field_first": 0,
            "repeat_pict": 0,
            "color_range": "tv",
            "color_space": "bt470bg",
            "chroma_location": "left"
        },
        {
            "media_type": "video",
            "stream_index": 0,
            "key_frame": 0,
            "pts": 819200,
            "pts_time": "50.000000",
            "pkt_dts": 819200,
            "pkt_dts_time": "50.000000",
            "best_effort_timestamp": 819200,
            "best_effort_timestamp_time": "50.000000",
            "duration": 16384,
            "duration_time": "1.000000",
            "pkt_pos": "794493",
            "pkt_size": "419",
            "width": 1024,
            "height": 1024,
            "crop_top": 0,
            "crop_bottom": 0,
            "crop_left": 0,
            "crop_right": 0,
            "pix_fmt": "yuv420p",
            "pict_type": "B",
            "interlaced_frame": 0,
            "top_field_first": 0,
            "repeat_pict": 0,
            "color_range": "tv",
            "color_space": "bt470bg",
            "chroma_location": "left"
        },
        {
            "media_type": "video",
            "stream_index": 0,
            "key_frame": 0,
            "pts": 835584,
            "pts_time": "51.000000",
            "pkt_dts": 835584,
            "pkt_dts_time": "51.000000",
            "best_effort_timestamp": 835584,
            "best_effort_timestamp_time": "51.000000",
            "duration": 16384,
            "duration_time": "1.000000",
            "pkt_pos": "795197",
            "pkt_size": "303",
            "width": 1024,
            "height": 1024,
            "crop_top": 0,
            "crop_bottom": 0,
            "crop_left": 0,
            "crop_right": 0,
            "pix_fmt": "yuv420p",
            "pict_type": "B",
            "interlaced_frame": 0,
            "top_field_first": 0,
            "repeat_pict": 0,
            "color_range": "tv",
            "color_space": "bt470bg",
            "chroma_location": "left"
        },
        {
            "media_type": "video",
            "stream_index": 0,
            "key_frame": 0,
            "pts": 851968,
            "pts_time": "52.000000",
            "pkt_dts": 851968,
            "pkt_dts_time": "52.000000",
            "best_effort_timestamp": 851968,
            "best_effort_timestamp_time": "52.000000",
            "duration": 16384,
            "duration_time": "1.000000",
            "pkt_pos": "788313",
            "pkt_size": "6180",
            "width": 1024,
            "height": 1024,
            "crop_top": 0,
            "crop_bottom": 0,
            "crop_left": 0,
            "crop_right": 0,
            "pix_fmt": "yuv420p",
            "pict_type": "P",
            "interlaced_frame": 0,
            "top_field_first": 0,
            "repeat_pict": 0,
            "color_range": "tv",
            "color_space": "bt470bg",
            "chroma_location": "left"
        },
        {
            "media_type": "video",
            "stream_index": 0,
            "key_frame": 0,
            "pts": 868352,
            "pts_time": "53.000000",
            "pkt_dts": 868352,
            "pkt_dts_time": "53.000000",
            "best_effort_timestamp": 868352,
            "best_effort_timestamp_time": "53.000000",
            "duration": 16384,
            "duration_time": "1.000000",
            "pkt_pos": "801976",
            "pkt_size": "280",
            "width": 1024,
            "height": 1024,
            "crop_top": 0,
            "crop_bottom": 0,
            "crop_left": 0,
            "crop_right": 0,
            "pix_fmt": "yuv420p",
            "pict_type": "B",
            "interlaced_frame": 0,
            "top_field_first": 0,
            "repeat_pict": 0,
            "color_range": "tv",
            "color_space": "bt470bg",
            "chroma_location": "left"
        },
        {
            "media_type": "video",
            "stream_index": 0,
            "key_frame": 0,
            "pts": 884736,
            "pts_time": "54.000000",
            "pkt_dts": 884736,
            "pkt_dts_time": "54.000000",
            "best_effort_timestamp": 884736,
            "best_effort_timestamp_time": "54.000000",
            "duration": 16384,
            "duration_time": "1.000000",
            "pkt_pos": "801498",
            "pkt_size": "478",
            "width": 1024,
            "height": 1024,
            "crop_top": 0,
            "crop_bottom": 0,
            "crop_left": 0,
            "crop_right": 0,
            "pix_fmt": "yuv420p",
            "pict_type": "B",
            "interlaced_frame": 0,
            "top_field_first": 0,
            "repeat_pict": 0,
            "color_range": "tv",
            "color_space": "bt470bg",
            "chroma_location": "left"
        },
        {
            "media_type": "video",
            "stream_index": 0,
            "key_frame": 0,
            "pts": 901120,
            "pts_time": "55.000000",
            "pkt_dts": 901120,
            "pkt_dts_time": "55.000000",
            "best_effort_timestamp": 901120,
            "best_effort_timestamp_time": "55.000000",
            "duration": 16384,
            "duration_time": "1.000000",
            "pkt_pos": "802256",
            "pkt_size": "326",
            "width": 1024,
            "height": 1024,
            "crop_top": 0,
            "crop_bottom": 0,
            "crop_left": 0,
            "crop_right": 0,
            "pix_fmt": "yuv420p",
            "pict_type": "B",
            "interlaced_frame": 0,
            "top_field_first": 0,
            "repeat_pict": 0,
            "color_range": "tv",
            "color_space": "bt470bg",
            "chroma_location": "left"
        },
        {
            "media_type": "video",
            "stream_index": 0,
            "key_frame": 0,
            "pts": 917504,
            "pts_time": "56.000000",
            "pkt_dts": 917504,
            "pkt_dts_time": "56.000000",
            "best_effort_timestamp": 917504,
            "best_effort_timestamp_time": "56.000000",
            "duration": 16384,
            "duration_time": "1.000000",
            "pkt_pos": "795500",
            "pkt_size": "5998",
            "width": 1024,
            "height": 1024,
            "crop_top": 0,
            "crop_bottom": 0,
            "crop_left": 0,
            "crop_right": 0,
            "pix_fmt": "yuv420p",
            "pict_type": "P",
            "interlaced_frame": 0,
            "top_field_first": 0,
            "repeat_pict": 0,
            "color_range": "tv",
            "color_space": "bt470bg",
            "chroma_location": "left"
        },
        {
            "media_type": "video",
            "stream_index": 0,
            "key_frame": 0,
            "pts": 933888,
            "pts_time": "57.000000",
            "pkt_dts": 933888,
            "pkt_dts_time": "57.000000",
            "best_effort_timestamp": 933888,
            "best_effort_timestamp_time": "57.000000",
            "duration": 16384,
            "duration_time": "1.000000",
            "pkt_pos": "808691",
            "pkt_size": "296",
            "width": 1024,
            "height": 1024,
            "crop_top": 0,
            "crop_bottom": 0,
            "crop_left": 0,
            "crop_right": 0,
            "pix_fmt": "yuv420p",
            "pict_type": "B",
            "interlaced_frame": 0,
            "top_field_first": 0,
            "repeat_pict": 0,
            "color_range": "tv",
            "color_space": "bt470bg",
            "chroma_location": "left"
        },
        {
            "media_type": "video",
            "stream_index": 0,
            "key_frame": 0,
            "pts": 950272,
            "pts_time": "58.000000",
            "pkt_dts": 950272,
            "pkt_dts_time": "58.000000",
            "best_effort_timestamp": 950272,
            "best_effort_timestamp_time": "58.000000",
            "duration": 16384,
            "duration_time": "1.000000",
            "pkt_pos": "808165",
            "pkt_size": "526",
            "width": 1024,
            "height": 1024,
            "crop_top": 0,
            "crop_bottom": 0,
            "crop_left": 0,
            "crop_right": 0,
            "pix_fmt": "yuv420p",
            "pict_type": "B",
            "interlaced_frame": 0,
            "top_field_first": 0,
            "repeat_pict": 0,
            "color_range": "tv",
            "color_space": "bt470bg",
            "chroma_location": "left"
        },
        {
            "media_type": "video",
            "stream_index": 0,
            "key_frame": 0,
            "pts": 966656,
            "pts_time": "59.000000",
            "pkt_dts": 966656,
            "pkt_dts_time": "59.000000",
            "best_effort_timestamp": 966656,
            "best_effort_timestamp_time": "59.000000",
            "duration": 16384,
            "duration_time": "1.000000",
            "pkt_pos": "808987",
            "pkt_size": "324",
            "width": 1024,
            "height": 1024,
            "crop_top": 0,
            "crop_bottom": 0,
            "crop_left": 0,
            "crop_right": 0,
            "pix_fmt": "yuv420p",
            "pict_type": "B",
            "interlaced_frame": 0,
            "top_field_first": 0,
            "repeat_pict": 0,
            "color_range": "tv",
            "color_space": "bt470bg",
            "chroma_location": "left"
        },
        {
            "media_type": "video",
            "stream_index": 0,
            "key_frame": 0,
            "pts": 983040,
            "pts_time": "60.000000",
            "pkt_dts": 983040,
            "pkt_dts_time": "60.000000",
            "best_effort_timestamp": 983040,
            "best_effort_timestamp_time": "60.000000",
            "duration": 16384,
            "duration_time": "1.000000",
            "pkt_pos": "802582",
            "pkt_size": "5583",
            "width": 1024,
            "height": 1024,
            "crop_top": 0,
            "crop_bottom": 0,
            "crop_left": 0,
            "crop_right": 0,
            "pix_fmt": "yuv420p",
            "pict_type": "P",
            "interlaced_frame": 0,
            "top_field_first": 0,
            "repeat_pict": 0,
            "color_range": "tv",
            "color_space": "bt470bg",
            "chroma_location": "left"
        },
        {
            "media_type": "video",
            "stream_index": 0,
            "key_frame": 0,
            "pts": 999424,
            "pts_time": "61.000000",
            "pkt_dts": 999424,
            "pkt_dts_time": "61.000000",
            "best_effort_timestamp": 999424,
            "best_effort_timestamp_time": "61.000000",
            "duration": 16384,
            "duration_time": "1.000000",
            "pkt_pos": "815015",
            "pkt_size": "292",
            "width": 1024,
            "height": 1024,
            "crop_top": 0,
            "crop_bottom": 0,
            "crop_left": 0,
            "crop_right": 0,
            "pix_fmt": "yuv420p",
            "pict_type": "B",
            "interlaced_frame": 0,
            "top_field_first": 0,
            "repeat_pict": 0,
            "color_range": "tv",
            "color_space": "bt470bg",
            "chroma_location": "left"
        },
        {
            "media_type": "video",
            "stream_index": 0,
            "key_frame": 0,
            "pts": 1015808,
            "pts_time": "62.000000",
            "pkt_dts": 1015808,
            "pkt_dts_time": "62.000000",
            "best_effort_timestamp": 1015808,
            "best_effort_timestamp_time": "62.000000",
            "duration": 16384,
            "duration_time": "1.000000",
            "pkt_pos": "814508",
            "pkt_size": "507",
            "width": 1024,
            "height": 1024,
            "crop_top": 0,
            "crop_bottom": 0,
            "crop_left": 0,
            "crop_right": 0,
            "pix_fmt": "yuv420p",
            "pict_type": "B",
            "interlaced_frame": 0,
            "top_field_first": 0,
            "repeat_pict": 0,
            "color_range": "tv",
            "color_space": "bt470bg",
            "chroma_location": "left"
        },
        {
            "media_type": "video",
            "stream_index": 0,
            "key_frame": 0,
            "pts": 1032192,
            "pts_time": "63.000000",
            "pkt_dts": 1032192,
            "pkt_dts_time": "63.000000",
            "best_effort_timestamp": 1032192,
            "best_effort_timestamp_time": "63.000000",
            "duration": 16384,
            "duration_time": "1.000000",
            "pkt_pos": "815307",
            "pkt_size": "319",
            "width": 1024,
            "height": 1024,
            "crop_top": 0,
            "crop_bottom": 0,
            "crop_left": 0,
            "crop_right": 0,
            "pix_fmt": "yuv420p",
            "pict_type": "B",
            "interlaced_frame": 0,
            "top_field_first": 0,
            "repeat_pict": 0,
            "color_range": "tv",
            "color_space": "bt470bg",
            "chroma_location": "left"
        },
        {
            "media_type": "video",
            "stream_index": 0,
            "key_frame": 0,
            "pts": 1048576,
            "pts_time": "64.000000",
            "pkt_dts": 1048576,
            "pkt_dts_time": "64.000000",
            "best_effort_timestamp": 1048576,
            "best_effort_timestamp_time": "64.000000",
            "duration": 16384,
            "duration_time": "1.000000",
            "pkt_pos": "809311",
            "pkt_size": "5197",
            "width": 1024,
            "height": 1024,
            "crop_top": 0,
            "crop_bottom": 0,
            "crop_left": 0,
            "crop_right": 0,
            "pix_fmt": "yuv420p",
            "pict_type": "P",
            "interlaced_frame": 0,
            "top_field_first": 0,
            "repeat_pict": 0,
            "color_range": "tv",
            "color_space": "bt470bg",
            "chroma_location": "left"
        },
        {
            "media_type": "video",
            "stream_index": 0,
            "key_frame": 0,
            "pts": 1064960,
            "pts_time": "65.000000",
            "pkt_dts": 1064960,
            "pkt_dts_time": "65.000000",
            "best_effort_timestamp": 1064960,
            "best_effort_timestamp_time": "65.000000",
            "duration": 16384,
            "duration_time": "1.000000",
            "pkt_pos": "820476",
            "pkt_size": "284",
            "width": 1024,
            "height": 1024,
            "crop_top": 0,
            "crop_bottom": 0,
            "crop_left": 0,
            "crop_right": 0,
            "pix_fmt": "yuv420p",
            "pict_type": "B",
            "interlaced_frame": 0,
            "top_field_first": 0,
            "repeat_pict": 0,
            "color_range": "tv",
            "color_space": "bt470bg",
            "chroma_location": "left"
        },
        {
            "media_type": "video",
            "stream_index": 0,
            "key_frame": 0,
            "pts": 1081344,
            "pts_time": "66.000000",
            "pkt_dts": 1081344,
            "pkt_dts_time": "66.000000",
            "best_effort_timestamp": 1081344,
            "best_effort_timestamp_time": "66.000000",
            "duration": 16384,
            "duration_time": "1.000000",
            "pkt_pos": "820002",
            "pkt_size": "474",
            "width": 1024,
            "height": 1024,
            "crop_top": 0,
            "crop_bottom": 0,
            "crop_left": 0,
            "crop_right": 0,
            "pix_fmt": "yuv420p",
            "pict_type": "B",
            "interlaced_frame": 0,
            "top_field_first": 0,
            "repeat_pict": 0,
            "color_range": "tv",
            "color_space": "bt470bg",
            "chroma_location": "left"
        },
        {
            "media_type": "video",
            "stream_index": 0,
            "key_frame": 0,
            "pts": 1097728,
            "pts_time": "67.000000",
            "pkt_dts": 1097728,
            "pkt_dts_time": "67.000000",
            "best_effort_timestamp": 1097728,
            "best_effort_timestamp_time": "67.000000",
            "duration": 16384,
            "duration_time": "1.000000",
            "pkt_pos": "820760",
            "pkt_size": "314",
            "width": 1024,
            "height": 1024,
            "crop_top": 0,
            "crop_bottom": 0,
            "crop_left": 0,
            "crop_right": 0,
            "pix_fmt": "yuv420p",
            "pict_type": "B",
            "interlaced_frame": 0,
            "top_field_first": 0,
            "repeat_pict": 0,
            "color_range": "tv",
            "color_space": "bt470bg",
            "chroma_location": "left"
        },
        {
            "media_type": "video",
            "stream_index": 0,
            "key_frame": 0,
            "pts": 1114112,
            "pts_time": "68.000000",
            "pkt_dts": 1114112,
            "pkt_dts_time": "68.000000",
            "best_effort_timestamp": 1114112,
            "best_effort_timestamp_time": "68.000000",
            "duration": 16384,
            "duration_time": "1.000000",
            "pkt_pos": "815626",
            "pkt_size": "4376",
            "width": 1024,
            "height": 1024,
            "crop_top": 0,
            "crop_bottom": 0,
            "crop_left": 0,
            "crop_right": 0,
            "pix_fmt": "yuv420p",
            "pict_type": "P",
            "interlaced_frame": 0,
            "top_field_first": 0,
            "repeat_pict": 0,
            "color_range": "tv",
            "color_space": "bt470bg",
            "chroma_location": "left"
        },
        {
            "media_type": "video",
            "stream_index": 0,
            "key_frame": 0,
            "pts": 1130496,
            "pts_time": "69.000000",
            "pkt_dts": 1130496,
            "pkt_dts_time": "69.000000",
            "best_effort_timestamp": 1130496,
            "best_effort_timestamp_time": "69.000000",
            "duration": 16384,
            "duration_time": "1.000000",
            "pkt_pos": "825375",
            "pkt_size": "301",
            "width": 1024,
            "height": 1024,
            "crop_top": 0,
            "crop_bottom": 0,
            "crop_left": 0,
            "crop_right": 0,
            "pix_fmt": "yuv420p",
            "pict_type": "B",
            "interlaced_frame": 0,
            "top_field_first": 0,
            "repeat_pict": 0,
            "color_range": "tv",
            "color_space": "bt470bg",
            "chroma_location": "left"
        },
        {
            "media_type": "video",
            "stream_index": 0,
            "key_frame": 0,
            "pts": 1146880,
            "pts_time": "70.000000",
            "pkt_dts": 1146880,
            "pkt_dts_time": "70.000000",
            "best_effort_timestamp": 1146880,
            "best_effort_timestamp_time": "70.000000",
            "duration": 16384,
            "duration_time": "1.000000",
            "pkt_pos": "824890",
            "pkt_size": "485",
            "width": 1024,
            "height": 1024,
            "crop_top": 0,
            "crop_bottom": 0,
            "crop_left": 0,
            "crop_right": 0,
            "pix_fmt": "yuv420p",
            "pict_type": "B",
            "interlaced_frame": 0,
            "top_field_first": 0,
            "repeat_pict": 0,
            "color_range": "tv",
            "color_space": "bt470bg",
            "chroma_location": "left"
        },
        {
            "media_type": "video",
            "stream_index": 0,
            "key_frame": 0,
            "pts": 1163264,
            "pts_time": "71.000000",
            "pkt_dts": 1163264,
            "pkt_dts_time": "71.000000",
            "best_effort_timestamp": 1163264,
            "best_effort_timestamp_time": "71.000000",
            "duration": 16384,
            "duration_time": "1.000000",
            "pkt_pos": "825676",
            "pkt_size": "320",
            "width": 1024,
            "height": 1024,
            "crop_top": 0,
            "crop_bottom": 0,
            "crop_left": 0,
            "crop_right": 0,
            "pix_fmt": "yuv420p",
            "pict_type": "B",
            "interlaced_frame": 0,
            "top_field_first": 0,
            "repeat_pict": 0,
            "color_range": "tv",
            "color_space": "bt470bg",
            "chroma_location": "left"
        },
        {
            "media_type": "video",
            "stream_index": 0,
            "key_frame": 0,
            "pts": 1179648,
            "pts_time": "72.000000",
            "pkt_dts": 1179648,
            "pkt_dts_time": "72.000000",
            "best_effort_timestamp": 1179648,
            "best_effort_timestamp_time": "72.000000",
            "duration": 16384,
            "duration_time": "1.000000",
            "pkt_pos": "821074",
            "pkt_size": "3816",
            "width": 1024,
            "height": 1024,
            "crop_top": 0,
            "crop_bottom": 0,
            "crop_left": 0,
            "crop_right": 0,
            "pix_fmt": "yuv420p",
            "pict_type": "P",
            "interlaced_frame": 0,
            "top_field_first": 0,
            "repeat_pict": 0,
            "color_range": "tv",
            "color_space": "bt470bg",
            "chroma_location": "left"
        },
        {
            "media_type": "video",
            "stream_index": 0,
            "key_frame": 0,
            "pts": 1196032,
            "pts_time": "73.000000",
            "pkt_dts": 1196032,
            "pkt_dts_time": "73.000000",
            "best_effort_timestamp": 1196032,
            "best_effort_timestamp_time": "73.000000",
            "duration": 16384,
            "duration_time": "1.000000",
            "pkt_pos": "829031",
            "pkt_size": "289",
            "width": 1024,
            "height": 1024,
            "crop_top": 0,
            "crop_bottom": 0,
            "crop_left": 0,
            "crop_right": 0,
            "pix_fmt": "yuv420p",
            "pict_type": "B",
            "interlaced_frame": 0,
            "top_field_first": 0,
            "repeat_pict": 0,
            "color_range": "tv",
            "color_space": "bt470bg",
            "chroma_location": "left"
        },
        {
            "media_type": "video",
            "stream_index": 0,
            "key_frame": 0,
            "pts": 1212416,
            "pts_time": "74.000000",
            "pkt_dts": 1212416,
            "pkt_dts_time": "74.000000",
            "best_effort_timestamp": 1212416,
            "best_effort_timestamp_time": "74.000000",
            "duration": 16384,
            "duration_time": "1.000000",
            "pkt_pos": "828582",
            "pkt_size": "449",
            "width": 1024,
            "height": 1024,
            "crop_top": 0,
            "crop_bottom": 0,
            "crop_left": 0,
            "crop_right": 0,
            "pix_fmt": "yuv420p",
            "pict_type": "B",
            "interlaced_frame": 0,
            "top_field_first": 0,
            "repeat_pict": 0,
            "color_range": "tv",
            "color_space": "bt470bg",
            "chroma_location": "left"
        },
        {
            "media_type": "video",
            "stream_index": 0,
            "key_frame": 0,
            "pts": 1228800,
            "pts_time": "75.000000",
            "pkt_dts": 1228800,
            "pkt_dts_time": "75.000000",
            "best_effort_timestamp": 1228800,
            "best_effort_timestamp_time": "75.000000",
            "duration": 16384,
            "duration_time": "1.000000",
            "pkt_pos": "829320",
            "pkt_size": "290",
            "width": 1024,
            "height": 1024,
            "crop_top": 0,
            "crop_bottom": 0,
            "crop_left": 0,
            "crop_right": 0,
            "pix_fmt": "yuv420p",
            "pict_type": "B",
            "interlaced_frame": 0,
            "top_field_first": 0,
            "repeat_pict": 0,
            "color_range": "tv",
            "color_space": "bt470bg",
            "chroma_location": "left"
        },
        {
            "media_type": "video",
            "stream_index": 0,
            "key_frame": 0,
            "pts": 1245184,
            "pts_time": "76.000000",
            "pkt_dts": 1245184,
            "pkt_dts_time": "76.000000",
            "best_effort_timestamp": 1245184,
            "best_effort_timestamp_time": "76.000000",
            "duration": 16384,
            "duration_time": "1.000000",
            "pkt_pos": "825996",
            "pkt_size": "2586",
            "width": 1024,
            "height": 1024,
            "crop_top": 0,
            "crop_bottom": 0,
            "crop_left": 0,
            "crop_right": 0,
            "pix_fmt": "yuv420p",
            "pict_type": "P",
            "interlaced_frame": 0,
            "top_field_first": 0,
            "repeat_pict": 0,
            "color_range": "tv",
            "color_space": "bt470bg",
            "chroma_location": "left"
        },
        {
            "media_type": "video",
            "stream_index": 0,
            "key_frame": 0,
            "pts": 1261568,
            "pts_time": "77.000000",
            "pkt_dts": 1261568,
            "pkt_dts_time": "77.000000",
            "best_effort_timestamp": 1261568,
            "best_effort_timestamp_time": "77.000000",
            "duration": 16384,
            "duration_time": "1.000000",
            "pkt_pos": "831088",
            "pkt_size": "283",
            "width": 1024,
            "height": 1024,
            "crop_top": 0,
            "crop_bottom": 0,
            "crop_left": 0,
            "crop_right": 0,
            "pix_fmt": "yuv420p",
            "pict_type": "B",
            "interlaced_frame": 0,
            "top_field_first": 0,
            "repeat_pict": 0,
            "color_range": "tv",
            "color_space": "bt470bg",
            "chroma_location": "left"
        },
        {
            "media_type": "video",
            "stream_index": 0,
            "key_frame": 0,
            "pts": 1277952,
            "pts_time": "78.000000",
            "pkt_dts": 1277952,
            "pkt_dts_time": "78.000000",
            "best_effort_timestamp": 1277952,
            "best_effort_timestamp_time": "78.000000",
            "duration": 16384,
            "duration_time": "1.000000",
            "pkt_pos": "830708",
            "pkt_size": "380",
            "width": 1024,
            "height": 1024,
            "crop_top": 0,
            "crop_bottom": 0,
            "crop_left": 0,
            "crop_right": 0,
            "pix_fmt": "yuv420p",
            "pict_type": "B",
            "interlaced_frame": 0,
            "top_field_first": 0,
            "repeat_pict": 0,
            "color_range": "tv",
            "color_space": "bt470bg",
            "chroma_location": "left"
        },
        {
            "media_type": "video",
            "stream_index": 0,
            "key_frame": 0,
            "pts": 1294336,
            "pts_time": "79.000000",
            "pkt_dts": 1294336,
            "pkt_dts_time": "79.000000",
            "best_effort_timestamp": 1294336,
            "best_effort_timestamp_time": "79.000000",
            "duration": 16384,
            "duration_time": "1.000000",
            "pkt_pos": "831371",
            "pkt_size": "267",
            "width": 1024,
            "height": 1024,
            "crop_top": 0,
            "crop_bottom": 0,
            "crop_left": 0,
            "crop_right": 0,
            "pix_fmt": "yuv420p",
            "pict_type": "B",
            "interlaced_frame": 0,
            "top_field_first": 0,
            "repeat_pict": 0,
            "color_range": "tv",
            "color_space": "bt470bg",
            "chroma_location": "left"
        },
        {
            "media_type": "video",
            "stream_index": 0,
            "key_frame": 0,
            "pts": 1310720,
            "pts_time": "80.000000",
            "pkt_dts": 1310720,
            "pkt_dts_time": "80.000000",
            "best_effort_timestamp": 1310720,
            "best_effort_timestamp_time": "80.000000",
            "duration": 16384,
            "duration_time": "1.000000",
            "pkt_pos": "829610",
            "pkt_size": "1098",
            "width": 1024,
            "height": 1024,
            "crop_top": 0,
            "crop_bottom": 0,
            "crop_left": 0,
            "crop_right": 0,
            "pix_fmt": "yuv420p",
            "pict_type": "P",
            "interlaced_frame": 0,
            "top_field_first": 0,
            "repeat_pict": 0,
            "color_range": "tv",
            "color_space": "bt470bg",
            "chroma_location": "left"
        },
        {
            "media_type": "video",
            "stream_index": 0,
            "key_frame": 0,
            "pts": 1327104,
            "pts_time": "81.000000",
            "pkt_dts": 1327104,
            "pkt_dts_time": "81.000000",
            "best_effort_timestamp": 1327104,
            "best_effort_timestamp_time": "81.000000",
            "duration": 16384,
            "duration_time": "1.000000",
            "pkt_pos": "832052",
            "pkt_size": "258",
            "width": 1024,
            "height": 1024,
            "crop_top": 0,
            "crop_bottom": 0,
            "crop_left": 0,
            "crop_right": 0,
            "pix_fmt": "yuv420p",
            "pict_type": "B",
            "interlaced_frame": 0,
            "top_field_first": 0,
            "repeat_pict": 0,
            "color_range": "tv",
            "color_space": "bt470bg",
            "chroma_location": "left"
        },
        {
            "media_type": "video",
            "stream_index": 0,
            "key_frame": 0,
            "pts": 1343488,
            "pts_time": "82.000000",
            "pkt_dts": 1343488,
            "pkt_dts_time": "82.000000",
            "best_effort_timestamp": 1343488,
            "best_effort_timestamp_time": "82.000000",
            "duration": 16384,
            "duration_time": "1.000000",
            "pkt_pos": "831734",
            "pkt_size": "318",
            "width": 1024,
            "height": 1024,
            "crop_top": 0,
            "crop_bottom": 0,
            "crop_left": 0,
            "crop_right": 0,
            "pix_fmt": "yuv420p",
            "pict_type": "B",
            "interlaced_frame": 0,
            "top_field_first": 0,
            "repeat_pict": 0,
            "color_range": "tv",
            "color_space": "bt470bg",
            "chroma_location": "left"
        },
        {
            "media_type": "video",
            "stream_index": 0,
            "key_frame": 0,
            "pts": 1359872,
            "pts_time": "83.000000",
            "pkt_dts": 1359872,
            "pkt_dts_time": "83.000000",
            "best_effort_timestamp": 1359872,
            "best_effort_timestamp_time": "83.000000",
            "duration": 16384,
            "duration_time": "1.000000",
            "pkt_pos": "832310",
            "pkt_size": "257",
            "width": 1024,
            "height": 1024,
            "crop_top": 0,
            "crop_bottom": 0,
            "crop_left": 0,
            "crop_right": 0,
            "pix_fmt": "yuv420p",
            "pict_type": "B",
            "interlaced_frame": 0,
            "top_field_first": 0,
            "repeat_pict": 0,
            "color_range": "tv",
            "color_space": "bt470bg",
            "chroma_location": "left"
        },
        {
            "media_type": "video",
            "stream_index": 0,
            "key_frame": 0,
            "pts": 1376256,
            "pts_time": "84.000000",
            "pkt_dts": 1376256,
            "pkt_dts_time": "84.000000",
            "best_effort_timestamp": 1376256,
            "best_effort_timestamp_time": "84.000000",
            "duration": 16384,
            "duration_time": "1.000000",
            "pkt_pos": "831638",
            "pkt_size": "96",
            "width": 1024,
            "height": 1024,
            "crop_top": 0,
            "crop_bottom": 0,
            "crop_left": 0,
            "crop_right": 0,
            "pix_fmt": "yuv420p",
            "pict_type": "P",
            "interlaced_frame": 0,
            "top_field_first": 0,
            "repeat_pict": 0,
            "color_range": "tv",
            "color_space": "bt470bg",
            "chroma_location": "left"
        },
        {
            "media_type": "video",
            "stream_index": 0,
            "key_frame": 0,
            "pts": 1392640,
            "pts_time": "85.000000",
            "best_effort_timestamp": 1392640,
            "best_effort_timestamp_time": "85.000000",
            "duration": 16384,
            "duration_time": "1.000000",
            "pkt_pos": "832617",
            "pkt_size": "279",
            "width": 1024,
            "height": 1024,
            "crop_top": 0,
            "crop_bottom": 0,
            "crop_left": 0,
            "crop_right": 0,
            "pix_fmt": "yuv420p",
            "pict_type": "B",
            "interlaced_frame": 0,
            "top_field_first": 0,
            "repeat_pict": 0,
            "color_range": "tv",
            "color_space": "bt470bg",
            "chroma_location": "left"
        },
        {
            "media_type": "video",
            "stream_index": 0,
            "key_frame": 0,
            "pts": 1409024,
            "pts_time": "86.000000",
            "best_effort_timestamp": 1409024,
            "best_effort_timestamp_time": "86.000000",
            "duration": 16384,
            "duration_time": "1.000000",
            "pkt_pos": "832567",
            "pkt_size": "50",
            "width": 1024,
            "height": 1024,
            "crop_top": 0,
            "crop_bottom": 0,
            "crop_left": 0,
            "crop_right": 0,
            "pix_fmt": "yuv420p",
            "pict_type": "P",
            "interlaced_frame": 0,
            "top_field_first": 0,
            "repeat_pict": 0,
            "color_range": "tv",
            "color_space": "bt470bg",
            "chroma_location": "left"
        }
    ]
}
